#!OML:ASF H:\Dans Jumps\Project 1\Capture day 1\Session 1\subject.ASF
:FULLY-SPECIFIED
:DEGREES
203
root 0.732887 16.1103 -16.1467 20.2459 -1.3442 -2.10468
lowerback 17.5941 -0.111941 -0.218595
upperback 6.75386 -0.102682 2.07751
thorax -2.62895 -0.0817967 2.33595
lowerneck -18.1905 0.571389 -1.93208
upperneck 4.77657 1.30196 -1.01941
head 4.32773 0.533557 0.103372
rclavicle 6.75868e-015 -1.60022e-014
rhumerus -35.4599 -13.8604 -72.4288
rradius 26.2085
rwrist 29.5909
rhand -17.5613 -24.3618
rfingers 7.12502
rthumb 8.69371 -54.1627
lclavicle 6.75868e-015 -1.60022e-014
lhumerus -33.4073 -5.40165 85.1717
lradius 20.5699
lwrist 13.5986
lhand -25.9023 -3.88422
lfingers 7.12502
lthumb 0.640076 26.0946
rfemur -54.9152 -3.22352 22.1848
rtibia 55.4696
rfoot -21.2597 -4.65669
rtoes 5.19377
lfemur -55.671 9.4916 -21.99
ltibia 54.9324
lfoot -18.5638 7.96257
ltoes -9.8192
204
root 0.731142 16.0449 -16.1912 20.7494 -1.3057 -2.08017
lowerback 18.061 -0.0848111 -0.286385
upperback 6.7435 -0.0740146 2.08023
thorax -2.88458 -0.066786 2.37649
lowerneck -18.3533 0.554666 -1.94534
upperneck 4.35653 1.27867 -1.00523
head 4.22121 0.52724 0.107257
rclavicle 1.27222e-014 8.15017e-015
rhumerus -36.2036 -13.9455 -72.0961
rradius 26.1802
rwrist 29.5945
rhand -17.4843 -24.2686
rfingers 7.12502
rthumb 8.76797 -54.0665
lclavicle 1.27222e-014 8.15017e-015
lhumerus -34.1739 -5.24014 85.1478
lradius 20.4978
lwrist 13.5264
lhand -25.9294 -3.92478
lfingers 7.12502
lthumb 0.613968 26.0541
rfemur -56.2285 -3.24155 22.2308
rtibia 56.5053
rfoot -21.869 -4.90446
rtoes 4.52009
lfemur -56.9682 9.35008 -22.0931
ltibia 55.9191
lfoot -18.9474 8.42791
ltoes -10.4383
205
root 0.729272 15.978 -16.2346 21.2543 -1.26004 -2.05725
lowerback 18.5305 -0.06031 -0.349316
upperback 6.72259 -0.0483668 2.08473
thorax -3.15213 -0.0528902 2.41673
lowerneck -18.5215 0.535677 -1.96755
upperneck 3.96058 1.25411 -0.980183
head 4.12288 0.520496 0.115941
rclavicle -1.98785e-016 7.25564e-015
rhumerus -36.9761 -14.0272 -71.7499
rradius 26.143
rwrist 29.6016
rhand -17.4137 -24.1566
rfingers 7.12502
rthumb 8.83617 -53.9516
lclavicle -1.98785e-016 7.25564e-015
lhumerus -34.9828 -5.06894 85.1209
lradius 20.4413
lwrist 13.5264
lhand -25.9664 -3.98204
lfingers 7.12502
lthumb 0.578199 25.9969
rfemur -57.544 -3.2629 22.2837
rtibia 57.5518
rfoot -22.5007 -5.17892
rtoes 3.91914
lfemur -58.2724 9.20851 -22.1931
ltibia 56.9158
lfoot -19.3571 8.91345
ltoes -11.1328
206
root 0.727272 15.9095 -16.2769 21.7595 -1.21414 -2.03751
lowerback 18.9995 -0.0354817 -0.409557
upperback 6.69474 -0.0223706 2.0901
thorax -3.42641 -0.038538 2.45622
lowerneck -18.6867 0.517145 -1.98748
upperneck 3.57662 1.23004 -0.956092
head 4.02784 0.513834 0.124038
rclavicle 0 -2.48481e-015
rhumerus -37.7794 -14.1035 -71.3913
rradius 26.106
rwrist 29.6204
rhand -17.3472 -24.0338
rfingers 7.12502
rthumb 8.90028 -53.8261
lclavicle 0 -2.48481e-015
lhumerus -35.8326 -4.89882 85.0922
lradius 20.4098
lwrist 13.6239
lhand -25.9555 -3.96416
lfingers 7.12502
lthumb 0.588724 26.0148
rfemur -58.8603 -3.28084 22.3435
rtibia 58.6042
rfoot -23.1246 -5.48773
rtoes 3.42912
lfemur -59.5815 9.074 -22.2903
ltibia 57.9217
lfoot -19.786 9.42953
ltoes -11.8975
